<svg id="logo" xmlns="http://www.w3.org/2000/svg" width="229" height="39" viewBox="0 0 229 39">
  <defs>
    <style>
      .cls-1 {
        fill: #ed1c24;
        fill-rule: evenodd;
      }
    </style>
  </defs>
  <path class="cls-1" d="M328.345,3287.23h-0.3v-0.44h0.468c0.186,0,.42.03,0.42,0.21,0,0.27-.374.23-0.592,0.23m0.841-.23a0.508,0.508,0,0,0-.529-0.47,0.31,0.31,0,0,0-.094.02h-0.747v1.73h0.234v-0.8h0.3l0.514,0.8h0.3l-0.514-.8a0.474,0.474,0,0,0,.54-0.4,0.43,0.43,0,0,0,0-.08m-0.778,1.76a1.34,1.34,0,1,1,1.339-1.35v0.01a1.336,1.336,0,0,1-1.338,1.34h0m0-2.92a1.581,1.581,0,0,0-1.6,1.58,1.593,1.593,0,0,0,3.186.01v-0.01a1.57,1.57,0,0,0-1.571-1.58h-0.017m-15.087-5.07h-3.254v-14.69h3.254a7.345,7.345,0,1,1,0,14.69m0-22.23H306.05a4.014,4.014,0,0,0-4.016,4.02v21.72a4.022,4.022,0,0,0,4.016,4.03h7.271a14.89,14.89,0,1,0,0-29.78m-103.128,22.24h-3.254v-14.69h3.254a7.345,7.345,0,1,1,0,14.69m0-22.23h-7.271a4.031,4.031,0,0,0-4.017,4.03v21.71a4.037,4.037,0,0,0,4.017,4.03h7.271a14.89,14.89,0,1,0,0-29.78m-29.675,22.24a7.35,7.35,0,1,1,7.333-7.4v0.06a7.336,7.336,0,0,1-7.333,7.34m0-22.24a14.891,14.891,0,1,0,14.853,15v-0.1a14.887,14.887,0,0,0-14.853-14.9m-32.648,22.24a7.35,7.35,0,1,1,7.317-7.42v0.08a7.347,7.347,0,0,1-7.317,7.34m0-22.24a14.844,14.844,0,0,0-13.016,7.75,4.025,4.025,0,0,0-3.829-2.79h-24.1a4.04,4.04,0,0,0-4.017,4.04v16.21a4.655,4.655,0,0,0,9.31.03v-12.21h18.808a3.932,3.932,0,0,0,2.226-.68,13.665,13.665,0,0,0-.218,2.55,14.837,14.837,0,1,0,14.837-14.9m-15.413-.02a4.261,4.261,0,0,0,0-8.52H105.18a4.261,4.261,0,0,0,0,8.52h27.277Zm162.182,0.13a4.037,4.037,0,0,0-4.017,4.03v10.12c-3.627-4.18-10.789-12.44-11.178-12.86a4.021,4.021,0,0,0-5.676-.24,3.962,3.962,0,0,0-1.3,2.98v20.74a4.061,4.061,0,0,0-.39-1.26c-0.015,0-.015-0.02-11.5-21.53h0a3.811,3.811,0,0,0-3.27-2.77,3.853,3.853,0,0,0-3.394,2.9l0.094-.04a33.692,33.692,0,0,0-1.541,3.03l-7.941,16.36-0.062.04h-8.625v-17.58a4.017,4.017,0,0,0-8.034,0v22.17a1.437,1.437,0,0,0,.281.72,3.961,3.961,0,0,0,3.752,2.76h15.179a3.952,3.952,0,0,0,3.612-2.28l7.069-14.57c0.591,1.18,7.208,14.44,7.208,14.44a4.025,4.025,0,0,0,5.388,1.78,3.981,3.981,0,0,0,2.023-2.36,4.414,4.414,0,0,0,.171-0.77,4.022,4.022,0,0,0,8.034-.29v-10.64c1.105,1.32,10.992,13.09,10.992,13.09l-0.078.03,0.093,0.11,0.062,0.06a3.959,3.959,0,0,0,3.052,1.44,4.04,4.04,0,0,0,4.032-4.03v-21.54a4.04,4.04,0,0,0-4.032-4.03" transform="translate(-101 -3250)"/>
</svg>
