<svg width="105" height="20" viewBox="0 0 105 20" fill="none" xmlns="http://www.w3.org/2000/svg">
<path d="M6.21216 9.39324L5.23647 8.82412C4.0589 8.14342 3.40844 7.61894 3.40844 6.81548C3.40844 5.92275 4.14862 5.3648 5.34862 5.3648C6.15609 5.3648 7.143 5.69957 8.47757 6.41375L8.6458 6.50303L8.65701 4.15962C8.65701 4.14846 8.62337 4.1373 8.62337 4.1373C7.46823 3.57934 6.36917 3.31152 5.16918 3.31152C2.65704 3.31152 0.963587 4.76221 0.963587 6.92707C0.963587 8.71253 2.11872 9.76149 3.86825 10.777L4.8888 11.3796C6.34674 12.2165 6.85141 12.8414 6.85141 13.7564C6.85141 14.8166 5.89815 15.5531 4.52993 15.5531C3.44208 15.5531 2.2533 15.129 0.806578 14.214L0.761719 14.1805V16.8698C0.761719 16.881 0.941157 16.9814 0.941157 16.9814C2.07386 17.5171 3.32993 17.7849 4.65329 17.7849C7.50188 17.7849 9.41963 16.1557 9.41963 13.723C9.40841 11.9375 8.51122 10.7323 6.21216 9.39324Z" fill="white"/>
<path d="M23.6406 3.63477V17.4386H26.1191V11.3903H31.5583V9.22548H26.1191V5.82195H31.8387V3.63477H23.6406Z" fill="white"/>
<path d="M35.8521 11.2899H41.0783V9.13621H35.8521V5.82195H41.5268V3.63477H33.4297V17.4386H41.6278V15.2402H35.8521V11.2899Z" fill="white"/>
<path d="M80.139 3.63518H77.1782C77.1782 3.63518 75.8324 5.7331 74.0493 8.52287C73.9259 8.7349 73.8025 8.91344 73.7577 9.04735H73.724C73.6679 8.91344 73.5558 8.7349 73.4212 8.52287C71.4923 5.52107 70.281 3.62402 70.281 3.62402H67.3203C67.3203 3.62402 72.468 11.1341 72.4792 11.1564V17.439H74.9801V11.1453C75.2605 10.7659 80.139 3.63518 80.139 3.63518Z" fill="white"/>
<path d="M64.0946 3.2002H63.8591L57.332 17.4392H59.99L61.0217 15.04H66.932L67.9638 17.4392H70.6329L64.0946 3.2002ZM61.8741 13.0314C61.8741 13.0314 63.0404 10.2639 63.7694 8.55657C63.8928 8.26643 63.9713 7.87586 63.9713 7.87586H63.9937C63.9937 7.87586 64.0722 8.25527 64.1843 8.55657C64.947 10.3532 66.0797 13.0314 66.0797 13.0314H61.8741Z" fill="white"/>
<path d="M51.0834 9.69479C51.1619 9.49392 51.2741 9.09219 51.2741 9.00292H51.3077C51.3189 9.09219 51.4199 9.49392 51.5096 9.69479C51.9582 10.833 54.8068 17.9191 54.8068 17.9191H55.0311L60.0217 3.63539H57.4199C57.4199 3.63539 55.5582 9.46044 54.9638 11.324C54.8965 11.5249 54.7956 11.9154 54.7843 12.0047H54.7619C54.7507 11.9154 54.6386 11.5249 54.5713 11.324C54.1115 10.1077 51.4199 3.12207 51.4199 3.12207H51.2068C51.2068 3.12207 48.6274 9.81754 48.0666 11.3017C47.9769 11.536 47.8872 11.9154 47.876 12.0047H47.8423C47.8311 11.9154 47.7302 11.5249 47.6629 11.324C47.0461 9.39349 45.1956 3.63539 45.1956 3.63539H42.5938L47.5732 17.9191H47.8087C47.7638 17.9191 50.5339 11.0339 51.0834 9.69479Z" fill="white"/>
<path d="M16.2274 3.2002H15.9919L9.46484 17.4392H12.1228L13.1545 15.04H19.0648L20.1078 17.4392H22.7657L16.2274 3.2002ZM14.0069 13.0314C14.0069 13.0314 15.162 10.2639 15.9022 8.55657C16.0256 8.26643 16.1041 7.87586 16.1041 7.87586H16.1265C16.1265 7.87586 16.205 8.25527 16.3172 8.55657C17.0798 10.3532 18.2125 13.0314 18.2125 13.0314H14.0069Z" fill="white"/>
<path d="M94.0566 16.4683C94.0566 12.6407 88.3483 12.2836 88.3483 6.8603C88.3483 2.94345 91.4099 1.00177 94.4379 0.68931C94.1576 0.678151 93.866 0.666992 93.4622 0.666992C92.7221 0.666992 92.3632 0.70047 91.7464 0.722788C86.0604 1.00177 83.0324 4.02588 82.8417 8.67923C82.8305 8.98053 82.7969 9.49385 82.7969 10.3308C82.7969 11.1454 82.8305 11.6699 82.8417 11.96C83.0324 16.4906 85.9034 19.4813 91.2978 19.8941C92.1725 19.7268 94.0566 19.0684 94.0566 16.4683Z" fill="#E41720"/>
<path d="M104.094 8.66739C103.915 4.25955 101.179 1.31354 96.0646 0.789062C95.1562 0.967608 93.373 1.65947 93.373 4.19259C93.373 8.02017 99.0814 8.37726 99.0814 13.8006C99.0814 17.193 96.5019 19.6703 92.6328 19.9604C92.8908 19.9716 93.1375 19.9716 93.4851 19.9716C94.2253 19.9716 94.5842 19.9493 95.201 19.9158C100.887 19.6368 103.915 16.6127 104.106 11.9593C104.117 11.658 104.15 11.1336 104.15 10.3301C104.128 9.49317 104.106 8.97985 104.094 8.66739Z" fill="#E41720"/>
<path d="M99.073 13.8014C99.073 8.37808 93.3646 8.02099 93.3646 4.19341C93.3646 1.6603 95.159 0.968431 96.0562 0.789885C95.7646 0.756408 95.4842 0.734089 95.1814 0.72293C94.9011 0.711771 94.6768 0.700612 94.4413 0.689453C91.402 1.01307 88.3516 2.95475 88.3516 6.8716C88.3516 12.2949 94.0599 12.652 94.0599 16.4796C94.0599 19.0797 92.1758 19.7269 91.2899 19.8943C91.4357 19.9054 91.5927 19.9166 91.7385 19.9166C92.0749 19.9389 92.3216 19.9501 92.602 19.9612C96.4936 19.6711 99.073 17.1826 99.073 13.8014Z" fill="white"/>
</svg>
