<svg width="99" height="48" viewBox="0 0 99 48" fill="none" xmlns="http://www.w3.org/2000/svg">
<path d="M88.5389 25.8264C88.2318 27.5641 86.5017 29.8865 83.5429 29.9028C83.5429 29.9028 83.5429 34.645 83.5429 35.5707C88.7492 35.3759 92.3224 31.7217 93.1147 28.23C93.5512 25.3392 94.6022 22.7569 98.4664 22.091C98.8222 22.0423 99 22.0261 99 22.0261V16.2282C99 16.2282 98.8707 16.1957 98.4664 16.2444C93.1147 16.5205 89.4767 20.6294 88.5389 25.8264Z" fill="white"/>
<path d="M70.608 16.5371L76.6227 30.8776L71.5943 39.68H77.5282L89.4121 16.5696H83.9632L79.7594 24.9173L76.2832 16.5371H70.608Z" fill="white"/>
<path d="M67.0671 28.2465H66.6953C66.6953 28.2465 66.0809 29.497 64.8844 30.098C63.0573 30.9912 61.295 30.2766 61.1009 30.0492C60.9878 29.968 61.0524 29.8706 61.1171 29.8381C61.2141 29.7731 61.8609 29.3834 61.8609 29.3834C61.8609 29.3834 71.3518 23.4231 71.756 23.1632C71.4488 21.3767 68.0049 15.7737 62.1196 16.4396C55.0862 17.2354 53.7119 23.6342 53.7281 26.1677C53.7281 29.1398 55.9593 35.5386 63.1544 35.571C69.3793 35.5873 71.8207 29.4971 71.8207 28.2628H67.0671V28.2465ZM60.4704 22.2375C61.9255 21.1981 63.9305 21.2306 65.0622 22.1076C64.4802 22.4486 58.6595 26.184 58.6595 26.184C58.4008 24.7385 59.2901 23.0658 60.4704 22.2375Z" fill="white"/>
<path d="M8.10044 21.7826C7.34052 26.4762 3.99363 29.6756 0 29.3832C0 30.7962 0.0161685 34.499 0 36.0906C9.13523 36.3667 13.242 28.6849 13.9696 24.3974C14.7134 20.1098 17.0093 15.8548 22.7976 14.5718C23.1049 14.5068 23.6708 14.5068 23.6708 14.5068V8.01061C23.6708 8.01061 23.4767 7.97813 22.8623 8.02685C15.3278 8.70895 9.32925 14.247 8.10044 21.7826Z" fill="white"/>
<path d="M25.2229 29.9517C23.2665 29.9517 21.6658 28.2951 21.6173 26.2164C21.6173 24.1213 22.8623 22.1725 25.2229 22.1562C27.3733 22.14 28.8123 24.235 28.8123 26.1027C28.8123 28.2302 27.2117 29.9517 25.2229 29.9517ZM25.0451 16.7156C20.2592 16.7156 16.2979 20.8082 16.2009 25.8915C16.2009 25.8915 16.2009 25.8915 16.2009 25.9078C16.2009 25.9727 16.2009 26.0377 16.2009 26.0864H16.217C16.4596 31.462 20.34 35.4572 25.0451 35.4572C29.8795 35.4572 33.8084 31.2672 33.8084 26.0864C33.8084 20.9219 29.8795 16.7156 25.0451 16.7156Z" fill="white"/>
<path d="M43.9461 29.9517C41.9897 29.9517 40.4052 28.2789 40.3405 26.2001C40.389 24.1376 41.3106 22.2212 43.9461 22.2212C46.0965 22.2212 47.5517 24.2188 47.5517 26.0865C47.5679 28.214 45.951 29.9517 43.9461 29.9517ZM43.7844 16.6994C42.5071 16.6994 41.2783 16.9917 40.1788 17.5277V10.3818H34.9887V25.0795C34.9887 25.3394 34.9887 25.9565 34.9887 26.0215V26.0702C35.1666 31.4459 39.0794 35.441 43.7844 35.441C48.6188 35.441 52.5478 31.251 52.5478 26.0702C52.5478 20.9057 48.6188 16.6994 43.7844 16.6994Z" fill="white"/>
</svg>
